<?xml version="1.0" encoding="utf-8"?>
<!-- Generator: Adobe Illustrator 27.8.1, SVG Export Plug-In . SVG Version: 6.00 Build 0)  -->
<svg version="1.1" id="Ebene_1" xmlns="http://www.w3.org/2000/svg" xmlns:xlink="http://www.w3.org/1999/xlink" x="0px" y="0px"
	 viewBox="0 0 175 199" style="enable-background:new 0 0 175 199;" xml:space="preserve">
<style type="text/css">
	.st0{fill:none;stroke:#000000;stroke-width:6.4741;stroke-linecap:round;stroke-miterlimit:10;}
	.st1{fill:none;stroke:#000000;stroke-width:7.2834;stroke-linecap:round;stroke-miterlimit:10;}
	.st2{fill:none;stroke:#FFFFFF;stroke-width:6.4741;stroke-linecap:round;stroke-miterlimit:10;}
	.st3{fill:#FFFFFF;}
	.st4{fill:none;stroke:#FFFFFF;stroke-width:7.2834;stroke-linecap:round;stroke-miterlimit:10;}
	.st5{fill:none;stroke:#2BE0BD;stroke-width:6.4741;stroke-linecap:round;stroke-miterlimit:10;}
	.st6{fill:none;stroke:#EFCC00;stroke-width:6.4741;stroke-linecap:round;stroke-miterlimit:10;}
	.st7{fill:#FFFFFF;stroke:#000000;stroke-width:7.2834;stroke-linecap:round;stroke-miterlimit:10;}
	.st8{fill:#FFFFFF;stroke:#EFCC00;stroke-width:6.4741;stroke-linecap:round;stroke-miterlimit:10;}
	.st9{fill:#F4E03D;}
	.st10{fill:none;stroke:#163151;stroke-width:3;stroke-linecap:round;stroke-miterlimit:10;}
	.st11{fill:#163151;}
	.st12{fill:none;stroke:#F4E03D;stroke-width:2.9089;stroke-linecap:round;stroke-miterlimit:10;}
</style>
<g>
	<path class="st2" d="M169.4,103v56.8c0,20.3-16.5,36.7-36.7,36.7h-92c-20.3,0-36.7-16.5-36.7-36.7V61.2c0-20.3,16.5-36.7,36.7-36.7
		h42.6"/>
	<path class="st2" d="M85.5,37.7c6.9-8.9,17-15.5,29-17.9c26.2-5.1,51.7,12,56.8,38.2c5.1,26.2-12,51.7-38.2,56.8
		c-10.4,2-20.7,0.6-29.6-3.6"/>
	<g>
		<g>
			<path class="st3" d="M31.3,103.5c0,2.5-1.5,4.1-3.8,4.1c-2.3,0-3.8-1.6-3.8-4.1V49.7c0-2.7,1.5-4.2,4.1-4.2h21.6
				c2.3,0,3.7,1.3,3.7,3.5c0,2.3-1.4,3.6-3.7,3.6H31.3v20.1h16c2.3,0,3.7,1.3,3.7,3.5c0,2.3-1.4,3.6-3.7,3.6h-16V103.5z"/>
			<path class="st3" d="M66.5,103.5c0,2.5-1.5,4.1-3.8,4.1c-2.3,0-3.8-1.6-3.8-4.1V49.7c0-2.7,1.5-4.2,4.1-4.2h14
				c10.8,0,18.8,7.3,18.8,17.2c0,10.2-6.4,16.6-16.7,16.9l-3.3,0.1l19.7,21.5c1.1,1.2,1.5,2.1,1.5,3.4c0,1.8-1.5,3-3.5,3
				c-1.3,0-2.3-0.6-3.4-1.8L66.5,80.1V103.5z M66.5,73.9h10.3c7.8,0,11.4-3.4,11.4-10.9c0-6.6-4.7-11-11.6-11H66.5V73.9z"/>
		</g>
	</g>
	<g>
		<g>
			<path class="st3" d="M31.3,178.2c0,2.5-1.5,4.1-3.8,4.1c-2.3,0-3.8-1.6-3.8-4.1v-54.5c0-2.5,1.5-4.1,3.8-4.1
				c2.3,0,3.8,1.6,3.8,4.1v22.5l26.4-24.1c2.3-2.2,2.8-2.5,4.2-2.5c1.9,0,3.2,1.4,3.2,3.4c0,1.5-0.4,2.3-1.6,3.3l-25.2,22.8
				l27.6,26.6c1,1.1,1.5,1.9,1.5,3.1c0,1.9-1.7,3.4-3.8,3.4c-1.4,0-2.4-0.5-3.6-1.7l-28.7-28.2V178.2z"/>
			<path class="st3" d="M81.7,124.3c0,2.6-2,4.6-4.7,4.6c-2.6,0-4.6-2-4.6-4.6c0-2.7,2-4.7,4.6-4.7
				C79.7,119.6,81.7,121.6,81.7,124.3z M80.8,178.2c0,2.5-1.5,4.1-3.8,4.1c-2.3,0-3.8-1.6-3.8-4.1v-38.9c0-2.5,1.5-4.1,3.8-4.1
				c2.3,0,3.8,1.6,3.8,4.1V178.2z"/>
			<path class="st3" d="M116.3,148.5c4.2,0.6,6.8,2,9.3,4.8c2.6,2.8,4,6.5,4,10.5c0,10.6-8.2,17.9-20.1,17.9H94.9
				c-2.6,0-4.1-1.5-4.1-4.2v-53.2c0-2.7,1.5-4.2,4.1-4.2h13.4c9.6,0,16.6,6.3,16.6,14.9c0,6.4-3.1,11.2-8.6,13.2V148.5z M98.4,146.2
				h8.7c6.2,0,10.2-4,10.2-10c0-6-3.7-9.5-10.1-9.5h-8.9V146.2z M98.4,175.2h10.7c7.6,0,12.9-4.7,12.9-11.4
				c0-6.7-5.1-11.3-12.5-11.3H98.4V175.2z"/>
			<path class="st3" d="M145.7,124.3c0,2.6-2,4.6-4.7,4.6c-2.6,0-4.6-2-4.6-4.6c0-2.7,2-4.7,4.6-4.7
				C143.7,119.6,145.7,121.6,145.7,124.3z M144.8,178.2c0,2.5-1.5,4.1-3.8,4.1c-2.3,0-3.8-1.6-3.8-4.1v-38.9c0-2.5,1.5-4.1,3.8-4.1
				c2.3,0,3.8,1.6,3.8,4.1V178.2z"/>
		</g>
	</g>
	<path class="st4" d="M104,63.1v14.3c0,11.6,8.9,21,19.8,21s19.8-9.4,19.8-21V63.1"/>
	<circle class="st3" cx="112.7" cy="42.6" r="6"/>
	<circle class="st3" cx="134.9" cy="42.6" r="6"/>
	<line class="st2" x1="123.5" y1="5.4" x2="123.5" y2="17.8"/>
	<line class="st2" x1="93" y1="13.3" x2="99.1" y2="24.6"/>
	<line class="st2" x1="155.6" y1="13.3" x2="149.1" y2="25.5"/>
</g>
</svg>
