<?xml version="1.0" encoding="utf-8"?>
<!-- Generator: Adobe Illustrator 27.8.1, SVG Export Plug-In . SVG Version: 6.00 Build 0)  -->
<svg version="1.1" id="Ebene_1" xmlns="http://www.w3.org/2000/svg" xmlns:xlink="http://www.w3.org/1999/xlink" x="0px" y="0px"
	 viewBox="0 0 175 199" style="enable-background:new 0 0 175 199;" xml:space="preserve">
<style type="text/css">
	.st0{fill:none;stroke:#000000;stroke-width:6.4741;stroke-linecap:round;stroke-miterlimit:10;}
	.st1{fill:none;stroke:#000000;stroke-width:7.2834;stroke-linecap:round;stroke-miterlimit:10;}
	.st2{fill:none;stroke:#FFFFFF;stroke-width:6.4741;stroke-linecap:round;stroke-miterlimit:10;}
	.st3{fill:#FFFFFF;}
	.st4{fill:none;stroke:#FFFFFF;stroke-width:7.2834;stroke-linecap:round;stroke-miterlimit:10;}
	.st5{fill:none;stroke:#2BE0BD;stroke-width:6.4741;stroke-linecap:round;stroke-miterlimit:10;}
	.st6{fill:none;stroke:#EFCC00;stroke-width:6.4741;stroke-linecap:round;stroke-miterlimit:10;}
	.st7{fill:#FFFFFF;stroke:#000000;stroke-width:7.2834;stroke-linecap:round;stroke-miterlimit:10;}
	.st8{fill:#FFFFFF;stroke:#EFCC00;stroke-width:6.4741;stroke-linecap:round;stroke-miterlimit:10;}
</style>
<g>
	<path class="st5" d="M168.9,101.2v56.8c0,20.3-16.5,36.7-36.7,36.7h-92c-20.3,0-36.7-16.5-36.7-36.7V59.3
		c0-20.3,16.5-36.7,36.7-36.7h42.6"/>
	<path class="st6" d="M85.1,35.9c6.9-8.9,17-15.5,29-17.9c26.2-5.1,51.7,12,56.8,38.2c5.1,26.2-12,51.7-38.2,56.8
		c-10.4,2-20.7,0.6-29.6-3.6"/>
	<g>
		<g>
			<path d="M30.9,101.7c0,2.5-1.5,4.1-3.8,4.1s-3.8-1.6-3.8-4.1V47.8c0-2.7,1.5-4.2,4.1-4.2h21.6c2.3,0,3.7,1.3,3.7,3.5
				c0,2.3-1.4,3.6-3.7,3.6H30.9v20.1h16c2.3,0,3.7,1.3,3.7,3.5c0,2.3-1.4,3.6-3.7,3.6h-16V101.7z"/>
			<path d="M66,101.7c0,2.5-1.5,4.1-3.8,4.1c-2.3,0-3.8-1.6-3.8-4.1V47.8c0-2.7,1.5-4.2,4.1-4.2h14c10.8,0,18.8,7.3,18.8,17.2
				c0,10.2-6.4,16.6-16.7,16.9l-3.3,0.1L95,99.3c1.1,1.2,1.5,2.1,1.5,3.4c0,1.8-1.5,3-3.5,3c-1.3,0-2.3-0.6-3.4-1.8L66,78.2V101.7z
				 M66,72.1h10.3c7.8,0,11.4-3.4,11.4-10.9c0-6.6-4.7-11-11.6-11H66V72.1z"/>
		</g>
	</g>
	<g>
		<g>
			<path d="M30.9,176.3c0,2.5-1.5,4.1-3.8,4.1s-3.8-1.6-3.8-4.1v-54.5c0-2.5,1.5-4.1,3.8-4.1s3.8,1.6,3.8,4.1v22.5l26.4-24.1
				c2.3-2.2,2.8-2.5,4.2-2.5c1.9,0,3.2,1.4,3.2,3.4c0,1.5-0.4,2.3-1.6,3.3l-25.2,22.8l27.6,26.6c1,1.1,1.5,1.9,1.5,3.1
				c0,1.9-1.7,3.4-3.8,3.4c-1.4,0-2.4-0.5-3.6-1.7l-28.7-28.2V176.3z"/>
			<path d="M81.2,122.5c0,2.6-2,4.6-4.7,4.6c-2.6,0-4.6-2-4.6-4.6c0-2.7,2-4.7,4.6-4.7C79.2,117.8,81.2,119.8,81.2,122.5z
				 M80.3,176.3c0,2.5-1.5,4.1-3.8,4.1s-3.8-1.6-3.8-4.1v-38.9c0-2.5,1.5-4.1,3.8-4.1s3.8,1.6,3.8,4.1V176.3z"/>
			<path d="M115.8,146.6c4.2,0.6,6.8,2,9.3,4.8c2.6,2.8,4,6.5,4,10.5c0,10.6-8.2,17.9-20.1,17.9H94.4c-2.6,0-4.1-1.5-4.1-4.2v-53.2
				c0-2.7,1.5-4.2,4.1-4.2h13.4c9.6,0,16.6,6.3,16.6,14.9c0,6.4-3.1,11.2-8.6,13.2V146.6z M97.9,144.3h8.7c6.2,0,10.2-4,10.2-10
				c0-6-3.7-9.5-10.1-9.5h-8.9V144.3z M97.9,173.3h10.7c7.6,0,12.9-4.7,12.9-11.4c0-6.7-5.1-11.3-12.5-11.3H97.9V173.3z"/>
			<path d="M145.3,122.5c0,2.6-2,4.6-4.7,4.6c-2.6,0-4.6-2-4.6-4.6c0-2.7,2-4.7,4.6-4.7C143.2,117.8,145.3,119.8,145.3,122.5z
				 M144.3,176.3c0,2.5-1.5,4.1-3.8,4.1c-2.3,0-3.8-1.6-3.8-4.1v-38.9c0-2.5,1.5-4.1,3.8-4.1c2.3,0,3.8,1.6,3.8,4.1V176.3z"/>
		</g>
	</g>
	<path class="st7" d="M103.5,61.3v14.3c0,11.6,8.9,21,19.8,21s19.8-9.4,19.8-21V61.3"/>
	<circle cx="112.2" cy="40.7" r="6"/>
	<circle cx="134.4" cy="40.7" r="6"/>
	<line class="st8" x1="123.1" y1="3.5" x2="123.1" y2="16"/>
	<line class="st8" x1="92.5" y1="11.4" x2="98.6" y2="22.8"/>
	<line class="st8" x1="155.2" y1="11.4" x2="148.6" y2="23.7"/>
</g>
</svg>
